<?xml version="1.0" encoding="utf-8"?>
<!-- Generator: Adobe Illustrator 25.0.0, SVG Export Plug-In . SVG Version: 6.00 Build 0)  -->
<svg version="1.1" id="Layer_1" xmlns="http://www.w3.org/2000/svg" xmlns:xlink="http://www.w3.org/1999/xlink" x="0px" y="0px"
	 viewBox="0 0 1920 960" style="enable-background:new 0 0 1920 960;" xml:space="preserve">
<style type="text/css">
	.st0{clip-path:url(#SVGID_2_);}
	.st1{clip-path:url(#SVGID_4_);}
	.st2{fill:#305BB2;}
	.st3{fill:#3E67B7;}
	.st4{fill:#284CA5;}
	.st5{clip-path:url(#SVGID_2_);fill:#3E67B7;}
	.st6{clip-path:url(#SVGID_2_);fill:#FDBA31;}
	.st7{fill:#FCBA32;}
</style>
<g>
	<defs>
		<path id="SVGID_1_" d="M-17.8,64.2c3.1-3,55,11.7,60.2,12.6c51.2,8.5,102.9,12.6,154.8,14.7c82.6,3.4,165.5,1.6,247.9-5.3
			c81.4-6.9,160.6-25,241.5-33.4c115.9-12,233.6-11.2,349.2,3.9c132.7,17.3,260.4,54.9,394.1,67.1c124.7,11.4,252,11.8,376.5-2.3
			c39.6-4.5,79-10.5,118-18.7v910.6h-1960C-35.6,1013.3-22.2,68.5-17.8,64.2z"/>
	</defs>
	<clipPath id="SVGID_2_">
		<use xlink:href="#SVGID_1_"  style="overflow:visible;"/>
	</clipPath>
	<g class="st0">
		<g>
			<g>
				<defs>
					<rect id="SVGID_3_" width="1920" height="960"/>
				</defs>
				<clipPath id="SVGID_4_">
					<use xlink:href="#SVGID_3_"  style="overflow:visible;"/>
				</clipPath>
				<g class="st1">
					<rect x="2.4" y="-11" class="st2" width="1920" height="1025.3"/>
					<path class="st3" d="M1931,517.5c0,240.9-434.9,127.9-597.7,335.5c-218.7,279.1-107.9,700-439.3,700
						c-572.7,0-1037-463.6-1037-1035.5C-143-54.4,321.3-518,894-518S1931-54.4,1931,517.5z"/>
					<path class="st4" d="M1748.3,279.2c0,240.9-364.8,218.9-527.5,426.5c-218.7,279.1-178,609-509.5,609
						c-572.7,0-1037-463.6-1037-1035.5S138.6-756.3,711.3-756.3C1284.1-756.3,1748.3-292.7,1748.3,279.2z"/>
				</g>
			</g>
		</g>
	</g>
	<path class="st5" d="M-93.3-43.4V987.3c80.9-2,161-17.2,234.6-52c222.8-105.2,152.4-312.7,429.4-481
		c290.6-176.9,489.6-26.8,665.6-172.6c91.4-75.3,144.6-191.6,164.6-325.1L-93.3-43.4L-93.3-43.4z"/>
	<path class="st6" d="M1358.7-8.3c7.6,51.1,27.8,95.6,62.6,124.5c66.9,55.8,135.5,9.6,246,77.3c105.3,64.4,85.6,132.6,170.3,172.9
		c28,13.3,58.4,19.1,89.2,19.9V-8.3H1358.7z"/>
	<g class="st0">
		<path class="st7" d="M265,687.5c-21.9-87.6-63.6-159.2-119.9-225.9c41.4-10.3,80.1-18.7,120.2-16.4
			c98.5,5.5,184.2,40.4,252.6,113.2c57.8,61.5,89,135.7,97.6,218.9c9.9,95.9-2.8,188.2-55.9,271.2
			c-59.8,93.4-147.1,143.8-255.8,158.6c-69.3,9.5-137.1,2.6-202-23.6c-91.2-36.8-157.3-100.6-192.4-192.9
			c-44.1-116-41.7-231.7,11.5-344.8C-56.9,598.4-24,559,16.5,525.6c10.7-8.8,19.7-10.3,32.7-4.9c81.5,33.6,149.9,84.4,204.7,153.4
			C256.5,677.3,259.2,680.5,265,687.5z M124.8,835.5c-0.6,13.5,1,28,4.4,42.2c13.5,56,53.3,92.3,108.1,98.6
			c49.6,5.7,99.4-21.3,120.4-68c23-50.9,22.7-102.6-2.5-152.9c-21.9-43.7-59.3-65.5-107.2-65.7c-48.7-0.3-83.9,24.1-106.1,67.4
			C129.5,781.3,124,807.2,124.8,835.5z"/>
	</g>
</g>
</svg>
