<?xml version="1.0" encoding="utf-8"?>
<!-- Generator: Adobe Illustrator 25.0.0, SVG Export Plug-In . SVG Version: 6.00 Build 0)  -->
<svg version="1.1" id="Layer_1" xmlns="http://www.w3.org/2000/svg" xmlns:xlink="http://www.w3.org/1999/xlink" x="0px" y="0px"
	 viewBox="0 0 1920 960" style="enable-background:new 0 0 1920 960;" xml:space="preserve">
<style type="text/css">
	.st0{display:none;}
	.st1{display:inline;}
	.st2{display:inline;clip-path:url(#SVGID_2_);}
	.st3{clip-path:url(#SVGID_4_);}
	.st4{fill:#1E3B94;}
	.st5{display:none;fill:#3E67B7;}
	.st6{clip-path:url(#SVGID_2_);fill:#3E67B7;}
	.st7{clip-path:url(#SVGID_6_);fill:#1E3B94;}
</style>
<g class="st0">
	<defs>
		<path id="SVGID_1_" d="M-17.8,64.2c3.1-3,55,11.7,60.2,12.6c51.2,8.5,102.9,12.6,154.8,14.7c82.6,3.4,165.5,1.6,247.9-5.3
			c81.4-6.9,160.6-25,241.5-33.4c115.9-12,233.6-11.2,349.2,3.9c132.7,17.3,260.4,54.9,394.1,67.1c124.7,11.4,252,11.8,376.5-2.3
			c39.6-4.5,79-10.5,118-18.7v910.6h-1960C-35.6,1013.3-22.2,68.5-17.8,64.2z"/>
	</defs>
	<clipPath id="SVGID_2_" class="st1">
		<use xlink:href="#SVGID_1_"  style="display:none;overflow:visible;"/>
	</clipPath>
	<g class="st2">
		<g>
			<g>
				<defs>
					<rect id="SVGID_3_" width="1920" height="960"/>
				</defs>
				<clipPath id="SVGID_4_">
					<use xlink:href="#SVGID_3_"  style="overflow:visible;"/>
				</clipPath>
				<g class="st3">
					<rect x="2.4" y="-11" class="st4" width="1920" height="1025.3"/>
					<path class="st5" d="M1931,517.5c0,240.9-434.9,127.9-597.7,335.5c-218.7,279.1-107.9,700-439.3,700
						c-572.7,0-1037-463.6-1037-1035.5C-143-54.4,321.3-518,894-518S1931-54.4,1931,517.5z"/>
				</g>
			</g>
		</g>
	</g>
	<path class="st6" d="M-93.3-43.4V987.3c80.9-2,161-17.2,234.6-52c222.8-105.2,152.4-312.7,429.4-481
		c290.6-176.9,489.6-26.8,665.6-172.6c91.4-75.3,144.6-191.6,164.6-325.1L-93.3-43.4L-93.3-43.4z"/>
</g>
<g>
	<defs>
		<path id="SVGID_5_" d="M-10.7,34.7c0,0,1597.3,112.9,1936-8.1l-5.3,952l-1954.7-8.1L-10.7,34.7z"/>
	</defs>
	<clipPath id="SVGID_6_">
		<use xlink:href="#SVGID_5_"  style="overflow:visible;"/>
	</clipPath>
	<path class="st7" d="M-10.7,34.7c0,0,1045.3,122.6,1936-8.1l-5.3,952l-1954.7-8.1L-10.7,34.7z"/>
</g>
</svg>
