<?xml version="1.0" encoding="utf-8"?>
<!-- Generator: Adobe Illustrator 25.2.3, SVG Export Plug-In . SVG Version: 6.00 Build 0)  -->
<svg version="1.1" id="Layer_1" focusable="false" xmlns="http://www.w3.org/2000/svg" xmlns:xlink="http://www.w3.org/1999/xlink"
	 x="0px" y="0px" viewBox="0 0 640 512" style="enable-background:new 0 0 640 512;" xml:space="preserve">
<style type="text/css">
	.st0{fill:#FFB71B;}
</style>
<path class="st0" d="M300.2,176.9c0,15.3-12.4,27.7-27.7,27.7s-27.7-12.4-27.7-27.7s12.4-27.7,27.7-27.7
	C287.9,149.2,300.2,161.6,300.2,176.9z M561.5,497.5c-15.4,15.4-40.5,15.4-55.9,0L387.3,379.2c-40,26.9-89.9,40.2-143.1,33.1
	C153.7,400.2,80.1,326,68.6,235.4C51.6,100.7,164.8-12.5,299.4,4.6C390,16.1,464.2,89.7,476.2,180.2c7.1,53.2-6.2,103.1-33.1,143.1
	l118.3,118.3C576.9,457,576.9,482.1,561.5,497.5z M357.7,183c0-47.2-38.1-85.2-86-85.2c-46.2,0-84.2,38.1-84.2,85.2
	c0,37.9,55.6,107.3,77,132.5c2,2.3,4.9,3.8,7.2,3.8c3.2,0,6.2-1.4,8.2-3.7C302,290.3,357.7,220.9,357.7,183z"/>
</svg>
