<?xml version="1.0" encoding="utf-8"?>
<!-- Generator: Adobe Illustrator 25.0.0, SVG Export Plug-In . SVG Version: 6.00 Build 0)  -->
<svg version="1.1" id="Layer_1" focusable="false" xmlns="http://www.w3.org/2000/svg" xmlns:xlink="http://www.w3.org/1999/xlink"
	 x="0px" y="0px" viewBox="0 0 640 512" style="enable-background:new 0 0 640 512;" xml:space="preserve">
<style type="text/css">
	.st0{fill:#FFB71B;}
</style>
<path class="st0" d="M599.7,248c0,17.3-14.4,30.9-30.8,30.9H538l0.7,154.2c0,2.7-0.2,5.2-0.5,7.8v15.6c0,21.3-17.2,38.5-38.5,38.5
	h-15.4c-1.1,0-2.1-0.9-3.2-0.1c-1.3-0.8-2.7,0.1-4,0.1h-54.4c-21.3,0-38.5-17.2-38.5-38.5v-84.7c0-17-13.8-30.8-30.8-30.8h-61.6
	c-17,0-30.8,13.8-30.8,30.8v84.7c0,21.3-17.2,38.5-38.5,38.5h-53.8c-1.4,0-2.9-0.1-4.3-0.2c-1.2,0.1-2.3,0.2-3.5,0.2h-15.4
	c-21.3,0-38.5-17.2-38.5-38.5V348.6c0-0.9,0-1.8,0.1-2.7v-67H76.1c-17.4,0-30.9-13.6-30.9-30.9c0-8.7,2.9-16.4,9.6-23.1L301.8,9.7
	C308.5,3,316.2,2,322.9,2s14.4,1.9,20.3,6.8l245.8,216.2C596.8,231.6,600.7,239.4,599.7,248L599.7,248z"/>
</svg>
