<?xml version="1.0" encoding="utf-8"?>
<!-- Generator: Adobe Illustrator 25.2.3, SVG Export Plug-In . SVG Version: 6.00 Build 0)  -->
<svg version="1.1" id="Layer_1" focusable="false" xmlns="http://www.w3.org/2000/svg" xmlns:xlink="http://www.w3.org/1999/xlink"
	 x="0px" y="0px" viewBox="0 0 640 512" style="enable-background:new 0 0 640 512;" xml:space="preserve">
<style type="text/css">
	.st0{fill:#FFB71B;}
</style>
<path class="st0" d="M277.5,29.2h122.8c20.7,0,39,13.2,45.5,32.8l10.4,31.2h74.7c35.3,0,64,28.7,64,64v256c0,35.3-28.7,64-64,64
	h-384c-35.3,0-64-28.7-64-64v-256c0-35.3,28.6-64,64-64h74.7L232,62C238.5,42.4,256.8,29.2,277.5,29.2L277.5,29.2z M338.9,381.2
	c53,0,96-43,96-96c0-53.9-43-96-96-96c-53.9,0-96,42.1-96,96C242.9,338.2,285,381.2,338.9,381.2z"/>
</svg>
