<?xml version="1.0" encoding="utf-8"?>
<!-- Generator: Adobe Illustrator 25.2.3, SVG Export Plug-In . SVG Version: 6.00 Build 0)  -->
<svg version="1.1" id="Layer_1" focusable="false" xmlns="http://www.w3.org/2000/svg" xmlns:xlink="http://www.w3.org/1999/xlink"
	 x="0px" y="0px" viewBox="0 0 640 512" style="enable-background:new 0 0 640 512;" xml:space="preserve">
<style type="text/css">
	.st0{fill:#FFB71B;}
</style>
<path class="st0" d="M587.1,228.8c-26,0-47.1,21.1-47.1,47.1v78.5H100.4v-78.5c0-26-21.1-47.1-47.1-47.1S6.1,249.9,6.1,275.9v188.4
	c0,8.6,7,15.7,15.7,15.7h62.8c8.7,0,14.8-7,14.8-15.7l0.9-15.7H540v15.7c0,8.7,7,15.7,15.7,15.7h62.8c8.7,0,15.7-7,15.7-15.7V275.9
	C634.2,249.9,613.1,228.8,587.1,228.8z M131.8,275.9V323h376.8v-47.1c0-37.9,27-69.6,62.8-76.9v-33c0-69.4-56.2-125.6-125.6-125.6
	H193.7C124.3,40.4,68.1,96.6,68.1,166l0.9,33C104.8,206.3,131.8,238,131.8,275.9z"/>
</svg>
