<?xml version="1.0" encoding="utf-8"?>
<!-- Generator: Adobe Illustrator 25.2.3, SVG Export Plug-In . SVG Version: 6.00 Build 0)  -->
<svg version="1.1" id="Layer_1" focusable="false" xmlns="http://www.w3.org/2000/svg" xmlns:xlink="http://www.w3.org/1999/xlink"
	 x="0px" y="0px" viewBox="0 0 640 512" style="enable-background:new 0 0 640 512;" xml:space="preserve">
<style type="text/css">
	.st0{fill:#FFB71B;}
</style>
<path class="st0" d="M401.1,157.2L528.5,29.8c-1.8-0.2-3.6-0.6-5.5-0.6H437l-128,128H401.1z M241.1,157.2l128-128h-92.2l-128,128
	H241.1z M572.7,53.4L468.9,157.2H587v-64C587,78,581.5,64.3,572.7,53.4z M209.1,29.2H139c-35.3,0-64,28.7-64,64v64h6.1L209.1,29.2z
	 M75,413.2c0,35.4,28.6,64,64,64h384c35.4,0,64-28.6,64-64v-224H75V413.2z"/>
</svg>
