<?xml version="1.0" encoding="utf-8"?>
<!-- Generator: Adobe Illustrator 25.2.3, SVG Export Plug-In . SVG Version: 6.00 Build 0)  -->
<svg version="1.1" id="Layer_1" focusable="false" xmlns="http://www.w3.org/2000/svg" xmlns:xlink="http://www.w3.org/1999/xlink"
	 x="0px" y="0px" viewBox="0 0 640 512" style="enable-background:new 0 0 640 512;" xml:space="preserve">
<style type="text/css">
	.st0{fill:#FFB71B;}
</style>
<g>
	<path class="st0" d="M552,469c-4.4,15.3-16,23.5-29.4,29.9c-6.6,3.2-13.5,5.8-20.5,8.3c-10.7,3.8-18.5-1.9-18.5-13.1
		c0-38.2,0-76.3,0-114.5c0-35.9,0-71.8,0-107.7c0-1.7,0-3.4,0-5.1c8.7-2.5,17.2-4.8,25.5-7.4c14.6-4.7,28.7-10.7,41.3-19.6
		c0.4-0.3,1-0.4,1.5-0.6C552,315.7,552,392.4,552,469z"/>
	<path class="st0" d="M116,239.4c8.1,4.3,15.4,9.2,23.5,12.3c13.4,5.2,27.3,9.3,41.1,13.7c2.7,0.9,3.8,1.7,3.8,4.8
		c-0.1,74.7-0.1,149.3-0.1,224c0,11-7.8,16.6-18.2,13.2c-11.5-3.8-22.6-8.3-32.6-15.2c-11.7-8-17.7-18.3-17.7-33.2
		c0.4-71.5,0.2-143.1,0.2-214.6C116,242.7,116,241,116,239.4z"/>
	<path class="st0" d="M368,264.9c12,25.8,23.5,50.7,35.4,76.2c-5.8,0-10.8,0-15.9,0c-10.1,0-20.1-0.1-30.2,0.1
		c-2.8,0-4.4-0.8-5.8-3.2c-2.7-4.5-5.9-8.7-8.6-13.2c-0.7-1.1-1.1-3.1-0.6-4.2C350.6,302.4,359.1,284.2,368,264.9z"/>
	<path class="st0" d="M295.7,300.1c9.2,13.8,18,27,27.1,40.7c-18.3,0-35.8,0-54.2,0C277.6,327.2,286.4,314,295.7,300.1z"/>
</g>
<g>
	<path class="st0" d="M247.4,109.2c0,24-19,47.1-61.6,47.1c-19.6,0-40.4-4.8-54.9-13.9l14.5-30.1c11.3,7.7,25.9,11.7,39.2,11.7
		c13.5,0,22.4-5.3,22.4-14.7c0-8.5-6.3-13.7-21.6-13.7h-16.8V70.2L193.9,43h-55.8V12h102.2v25L211,68.6
		C234.9,73.7,247.4,89,247.4,109.2z"/>
	<path class="st0" d="M381.3,108c0,29.5-24.6,48.3-55.6,48.3c-39.6,0-65.4-23.8-65.4-69.7c0-49.3,30.5-77.4,75.1-77.4
		c16,0,31.3,3.6,41.6,10.3l-14.5,28.7c-8.1-5.7-17-7.3-26.1-7.3c-20.2,0-33.7,11.3-35.8,32.9c7.9-6.9,18.6-10.5,31.9-10.5
		C359.3,63.4,381.3,80.9,381.3,108z M342.5,109.8c0-10.9-7.9-17.8-19.4-17.8c-11.5,0-19.6,7.3-19.6,18c0,10.5,7.7,17.8,19.8,17.8
		C334.7,127.8,342.5,120.9,342.5,109.8z"/>
	<path class="st0" d="M391.4,82.8c0-46.7,26.3-73.5,62.4-73.5c36,0,62.2,26.9,62.2,73.5c0,46.7-26.3,73.5-62.2,73.5
		C417.7,156.3,391.4,129.4,391.4,82.8z M475.9,82.8c0-29.7-9.3-40.8-22-40.8c-12.9,0-22.2,11.1-22.2,40.8s9.3,40.8,22.2,40.8
		C466.6,123.6,475.9,112.4,475.9,82.8z"/>
</g>
<g>
	<path class="st0" d="M323.4,145.3c7.4,0,13.3-2.9,16.5-8.1c-11.1,0-22.2,0.1-33.3,0.5C309.9,142.5,315.7,145.3,323.4,145.3z"/>
	<path class="st0" d="M527.3,169c-9.8-5.4-20.1-9.4-30.6-12.6c-10.9,11.4-25.8,17.4-42.9,17.4c-24.2,0-44-12.1-54.4-34.1
		c-6.6-0.5-13.2-1-19.8-1.3c-6.1,22-27.7,35.4-53.9,35.4c-27.5,0-48.4-11.5-58.6-34c-7.5,0.6-15.1,1.3-22.6,2.2
		c-6.6,17.6-25.5,31.7-58.9,31.7c-13.9,0-28.3-2.4-40.8-7.1c-1.9,1-3.7,2-5.5,3.1c-6.2,3.7-12.3,8.4-17,13.9
		c-10.5,12.3-8.5,27.8,4.1,39.4c10.5,9.8,23.5,15.3,36.8,19.8c8,2.7,16.3,5,24.5,7.1c14.9,3.8,22,12.6,22,28c0,54.1,0,108.1,0,162.2
		c0,1.7,0,3.4,0,5.3c82.8-13.8,165.2-13.8,248.2,0c0-1.7,0-3.3,0-4.9c0-53.9,0.3-107.9-0.2-161.8c-0.1-16.2,9.4-26.2,22.9-29.1
		c16.5-3.6,32.6-8.8,47.4-17.2c11-6.2,20.2-14.1,23.7-27c0-3.1,0-6.2,0-9.4C548.2,183.2,538.7,175.2,527.3,169z M295.8,222.4
		c7.1,0.1,12.7,5.8,12.6,12.8c-0.1,6.9-6,12.8-12.9,12.7c-6.9-0.1-12.7-6-12.6-12.9C283,228,288.7,222.4,295.8,222.4z M421.1,375.7
		c-58,0-116.1,0-174.1,0c-5.8,0-10.7-1.5-13.6-6.9c-2.9-5.4-1.4-10.3,1.9-15.1c16.3-24.3,32.4-48.6,48.6-72.9
		c6.7-10.1,16.8-10,23.6,0.1c5.6,8.3,11.1,16.7,17.1,25.7c10.6-22.9,20.9-44.9,31-66.8c2.2-4.7,5.2-8.1,10.6-8.8
		c6.3-0.8,10.9,1.9,13.8,8.3c9.6,20.5,19.1,41.1,28.7,61.7c8.4,18.1,16.8,36.2,25.2,54.4C439.3,366.8,433.6,375.7,421.1,375.7z"/>
</g>
</svg>
