<?xml version="1.0" encoding="utf-8"?>
<!-- Generator: Adobe Illustrator 25.2.3, SVG Export Plug-In . SVG Version: 6.00 Build 0)  -->
<svg version="1.1" id="Layer_1" focusable="false" xmlns="http://www.w3.org/2000/svg" xmlns:xlink="http://www.w3.org/1999/xlink"
	 x="0px" y="0px" viewBox="0 0 640 512" style="enable-background:new 0 0 640 512;" xml:space="preserve">
<style type="text/css">
	.st0{fill:#FFB71B;}
</style>
<path class="st0" d="M434.1-1.8h-288c-25.6,0-48,22.4-48,48v416c0,25.6,22.4,48,48,48h288c25.6,0,48-22.4,48-48v-416
	C482.1,20.5,459.7-1.8,434.1-1.8z M162.1,206.2c0-8.8,7.2-16,16-16h32c8.8,0,16,7.2,16,16v32c0,8.8-7.2,16-16,16h-32
	c-8.8,0-16-7.2-16-16V206.2z M162.1,302.2c0-8.8,7.2-16,16-16h32c8.8,0,16,7.2,16,16v32c0,8.8-7.2,16-16,16h-32c-8.8,0-16-7.2-16-16
	V302.2z M322.1,430.2c0,8.8-7.2,16-16,16h-128c-8.8,0-16-7.2-16-16v-32c0-8.8,7.2-16,16-16h128c8.8,0,16,7.2,16,16V430.2z
	 M322.1,334.2c0,8.8-7.2,16-16,16h-32c-8.8,0-16-7.2-16-16v-32c0-8.8,7.2-16,16-16h32c8.8,0,16,7.2,16,16V334.2z M322.1,238.2
	c0,8.8-7.2,16-16,16h-32c-8.8,0-16-7.2-16-16v-32c0-8.8,7.2-16,16-16h32c8.8,0,16,7.2,16,16V238.2z M418.1,430.2c0,8.8-7.2,16-16,16
	h-32c-8.8,0-16-7.2-16-16v-32c0-8.8,7.2-16,16-16h32c8.8,0,16,7.2,16,16V430.2z M418.1,334.2c0,8.8-7.2,16-16,16h-32
	c-8.8,0-16-7.2-16-16v-32c0-8.8,7.2-16,16-16h32c8.8,0,16,7.2,16,16V334.2z M418.1,238.2c0,8.8-7.2,16-16,16h-32
	c-8.8,0-16-7.2-16-16v-32c0-8.8,7.2-16,16-16h32c8.8,0,16,7.2,16,16V238.2z M418.1,142.2c0,8.8-7.2,16-16,16h-224
	c-8.8,0-16-7.2-16-16v-64c0-8.8,7.2-16,16-16h224c8.8,0,16,7.2,16,16V142.2z"/>
</svg>
