<?xml version="1.0" encoding="utf-8"?>
<!-- Generator: Adobe Illustrator 25.4.1, SVG Export Plug-In . SVG Version: 6.00 Build 0)  -->
<svg version="1.1" id="Layer_1" xmlns="http://www.w3.org/2000/svg" xmlns:xlink="http://www.w3.org/1999/xlink" x="0px" y="0px"
	 viewBox="0 0 95 56.7" style="enable-background:new 0 0 95 56.7;" xml:space="preserve">
<style type="text/css">
	.Arched_x0020_Green{fill:url(#SVGID_1_);stroke:#FFFFFF;stroke-width:0.25;stroke-miterlimit:1;}
	.st0{fill:#1C3E95;}
	.st1{fill:#FFFFFF;}
	.st2{fill:#FCBD1B;}
</style>
<linearGradient id="SVGID_1_" gradientUnits="userSpaceOnUse" x1="0" y1="56.6904" x2="0.7071" y2="55.9833">
	<stop  offset="0" style="stop-color:#1EAB4B"/>
	<stop  offset="0.9831" style="stop-color:#19361A"/>
</linearGradient>
<rect class="st0" width="95" height="56.7"/>
<g>
	<path class="st1" d="M32.3,9.9c0.1-0.3,0.2-0.6,0.2-0.9v0h2.3v0c-0.3,0.1-0.4,0.5-0.4,0.9l0.9,7.2c0.1,0.7,0.1,1.1,0.7,1.5v0h-2.6
		v0c0.5-0.2,0.5-0.6,0.5-1.1l-0.8-7l-3,8.3c-0.7-0.6-0.9-0.9-1.2-1.8l-2.5-6.6l-0.8,6.3c-0.1,0.9-0.2,1.5,0.4,1.8v0H24v0
		c0.6-0.5,0.6-1.3,0.7-2l0.8-6.1c0.1-0.4,0.2-1-0.4-1.4v0h2.3v0c0,0.2,0.1,0.5,0.2,0.7l2.5,6.4L32.3,9.9z"/>
	<path class="st1" d="M38.1,15L37.4,17c-0.3,0.8-0.4,1.2,0.3,1.5v0h-2.5v0c0.8-0.4,1-1.2,1.3-2.1l2.2-6.1c0.2-0.5,0.4-1.1-0.2-1.4v0
		h2.1l2.8,7.5c0.3,0.8,0.5,1.6,1.3,2.1v0H42v0c0.7-0.3,0.5-0.5,0.2-1.5L41.5,15H38.1z M39.8,10.2l-1.3,3.7h2.6L39.8,10.2z"/>
	<path class="st1" d="M47.1,9c1.8,0,2.8,1,2.8,2.3c0,1.3-1,2.3-2.1,2.6l1.9,2.6c0.6,0.8,1.4,1.5,2.2,2h-1.2c-0.7,0-1.1-0.2-1.5-0.7
		l-1.6-2.2l-1.2-2.1c1.1-0.2,2.3-0.7,2.3-2.1c0-1-0.8-1.7-1.7-1.6c-0.3,0-0.6,0.1-0.9,0.1v6.5c0,0.7-0.1,1.7,0.6,2v0H44v0
		c0.7-0.3,0.6-1.3,0.6-2V11c0-0.7,0.1-1.7-0.6-2v0H47.1z"/>
	<path class="st1" d="M55,16.7c0,0.8,0,1.4,0.7,1.9v0h-2.6v0c0.7-0.3,0.6-1.3,0.6-2V10h-1.2c-0.6,0-1.2,0.2-1.6,0.6h0l0.5-1.7h0
		C51.5,9,51.7,9,51.9,9h0.3h5c0.2,0,0.4,0,0.6-0.1h0l-0.4,1.7h0c-0.2-0.5-0.7-0.6-1.1-0.6H55V16.7z"/>
	<path class="st1" d="M58.8,11c0-0.7,0.1-1.7-0.6-2v0h2.5v0c-0.7,0.3-0.6,1.4-0.6,2v5.5c0,0.7-0.1,1.7,0.6,2v0h-2.5v0
		c0.7-0.3,0.6-1.3,0.6-2V11z"/>
	<path class="st1" d="M63.3,16.7c0,0.8,0,1.4,0.7,1.9v0h-2.4v0c0.7-0.5,0.7-1,0.7-1.9v-5.8c0-0.8,0-1.4-0.7-1.8v0h1.9v0
		c0.1,0.2,0.1,0.2,0.2,0.4L64,9.7l4.9,6.7v-5.5c0-0.8,0-1.4-0.7-1.8v0h2.4v0c-0.7,0.4-0.7,1-0.7,1.8V19c-0.9-0.3-1.4-0.8-1.9-1.7
		L63.3,11V16.7z"/>
	<polygon class="st2" points="14.3,20.5 20.8,20.5 20.8,34.1 26.3,34.1 26.3,40.5 14.3,40.5 	"/>
	<polygon class="st2" points="46.5,20.5 60.2,20.5 60.2,27 56.6,26.8 56.6,40.5 50.1,40.5 50.1,26.8 46.5,27 	"/>
	<polygon class="st2" points="59.8,20.5 73.5,20.5 73.5,27 69.9,26.8 69.9,40.5 63.4,40.5 63.4,26.8 59.8,27 	"/>
	<rect x="74.3" y="20.5" class="st2" width="6.5" height="20"/>
	<path class="st2" d="M36.4,20.2c-0.9,0-2,0.2-2.8,0.4c1.2,1.6,2.4,3,3.3,6.2c1.8,0.2,2.9,1.9,2.9,3.8c0,2.3-1.4,3.8-3.4,3.8
		c-2,0-3.4-1.6-3.4-3.8c0-2.1,1.3-3.9,3.4-3.9c0.1,0,0.3,0,0.5,0c-1.8-2.5-4-3.9-6.3-4.8c-2.5,1.8-4.1,4.7-4.1,8.5
		c0,6.4,4.5,10.3,9.9,10.3c5.5,0,9.9-3.8,9.9-10.3C46.4,24.3,41.9,20.2,36.4,20.2"/>
	<path class="st1" d="M14.7,45.4c0-0.8,0-0.9,0-1.1c0-0.2,0-0.3-0.2-0.3c0,0-0.1,0-0.2,0c0,0,0,0,0,0c0,0,0,0,0.1,0
		c0.2,0,0.5,0,0.5,0c0.1,0,0.3,0,0.5,0c0.8,0,1,0.5,1,0.8c0,0.4-0.2,0.6-0.5,0.9c0.3,0.1,0.8,0.5,0.8,1c0,0.6-0.4,1.1-1.2,1.1
		c-0.1,0-0.2,0-0.4,0c-0.1,0-0.3,0-0.3,0c0,0-0.1,0-0.2,0c-0.1,0-0.2,0-0.3,0c0,0-0.1,0-0.1,0c0,0,0,0,0,0c0,0,0.1,0,0.1,0
		c0.1,0,0.1-0.1,0.1-0.3c0-0.2,0-0.6,0-1.1V45.4z M15.1,45.5C15.1,45.6,15.2,45.6,15.1,45.5c0.1,0.1,0.1,0.1,0.3,0.1
		c0.3,0,0.4,0,0.4-0.1c0.1-0.1,0.2-0.3,0.2-0.5c0-0.4-0.2-0.8-0.6-0.8c-0.1,0-0.2,0-0.2,0c0,0-0.1,0-0.1,0V45.5z M15.1,46.1
		c0,0.4,0,1,0,1.1c0,0.2,0,0.3,0.2,0.4c0.1,0.1,0.3,0.1,0.4,0.1c0.3,0,0.7-0.1,0.7-0.8c0-0.2-0.1-0.7-0.4-0.9
		c-0.2-0.1-0.3-0.1-0.4-0.1c-0.1,0-0.3,0-0.4,0c0,0,0,0,0,0V46.1z"/>
	<path class="st1" d="M18,45.4c0-0.8,0-0.9,0-1.1c0-0.2,0-0.3-0.2-0.3c0,0-0.1,0-0.2,0c0,0,0,0,0,0c0,0,0,0,0.1,0c0.2,0,0.5,0,0.5,0
		c0,0,0.4,0,0.6,0c0.3,0,0.6,0,0.9,0.2c0.1,0.1,0.3,0.3,0.3,0.7c0,0.4-0.1,0.7-0.6,1.1c0.4,0.5,0.7,1,1,1.3c0.2,0.3,0.4,0.3,0.5,0.3
		c0.1,0,0.1,0,0.2,0c0,0,0,0,0,0c0,0,0,0-0.1,0h-0.3c-0.3,0-0.4,0-0.5-0.1c-0.2-0.1-0.4-0.4-0.6-0.7c-0.2-0.3-0.4-0.6-0.5-0.7
		c0,0,0,0-0.1,0l-0.6,0c0,0,0,0,0,0v0.1c0,0.5,0,0.9,0,1.1c0,0.1,0,0.2,0.2,0.3c0.1,0,0.2,0,0.2,0c0,0,0,0,0,0c0,0,0,0-0.1,0
		c-0.3,0-0.5,0-0.6,0c0,0-0.3,0-0.5,0c0,0-0.1,0-0.1,0c0,0,0,0,0,0c0,0,0.1,0,0.1,0c0.1,0,0.1-0.1,0.1-0.3c0-0.2,0-0.6,0-1.1V45.4z
		 M18.4,45.9C18.4,45.9,18.4,45.9,18.4,45.9C18.5,46,18.8,46,19,46c0.1,0,0.2,0,0.3-0.1c0.2-0.1,0.3-0.4,0.3-0.8c0-0.6-0.3-1-0.8-1
		c-0.1,0-0.3,0-0.3,0c0,0,0,0,0,0.1V45.9z"/>
	<path class="st1" d="M23,43.9c1,0,1.8,0.7,1.8,1.9c0,1.1-0.7,2-1.8,2c-1.3,0-1.8-1.1-1.8-2C21.1,45.1,21.7,43.9,23,43.9 M23.1,47.6
		c0.4,0,1.2-0.2,1.2-1.7c0-1.2-0.6-1.8-1.4-1.8c-0.8,0-1.3,0.5-1.3,1.6C21.6,46.9,22.2,47.6,23.1,47.6"/>
	<path class="st1" d="M26,45.4c0-0.8,0-0.9,0-1.1c0-0.2,0-0.3-0.2-0.3c0,0-0.1,0-0.2,0c0,0,0,0,0,0c0,0,0,0,0.1,0c0.2,0,0.5,0,0.5,0
		c0,0,0.3,0,0.5,0c0.1,0,0.1,0,0.1,0c0,0,0,0,0,0c0,0-0.1,0-0.1,0c-0.1,0-0.2,0.1-0.2,0.3c0,0.2,0,0.3,0,1.1v0.3h0
		c0.1-0.1,0.9-1,1.1-1.2c0.1-0.1,0.2-0.3,0.2-0.4c0-0.1,0-0.1-0.1-0.1c0,0,0,0,0,0c0,0,0,0,0.1,0c0.1,0,0.2,0,0.3,0c0,0,0.3,0,0.4,0
		c0,0,0.1,0,0.1,0c0,0,0,0,0,0c-0.1,0-0.2,0-0.3,0.1c-0.2,0.1-0.3,0.2-0.5,0.4c-0.1,0.1-0.9,1-1,1.1c0.1,0.1,1.1,1.2,1.3,1.4
		c0.4,0.4,0.4,0.5,0.7,0.6c0.1,0.1,0.2,0.1,0.3,0.1c0,0,0.1,0,0.1,0c0,0,0,0-0.1,0h-0.2c-0.1,0-0.2,0-0.3,0c-0.2,0-0.4-0.1-0.6-0.3
		c-0.2-0.2-1.2-1.3-1.4-1.6h0v0.5c0,0.5,0,0.9,0,1.1c0,0.1,0,0.2,0.2,0.3c0.1,0,0.1,0,0.2,0c0,0,0,0,0,0c0,0,0,0-0.1,0
		c-0.2,0-0.5,0-0.5,0c0,0-0.3,0-0.5,0c0,0-0.1,0-0.1,0c0,0,0,0,0,0c0,0,0.1,0,0.1,0c0.1,0,0.1-0.1,0.1-0.3c0-0.2,0-0.6,0-1.1V45.4z"
		/>
	<path class="st1" d="M29.7,45.4c0-0.8,0-0.9,0-1.1c0-0.2,0-0.3-0.2-0.3c0,0-0.1,0-0.2,0c0,0,0,0,0,0c0,0,0,0,0.1,0
		c0.2,0,0.5,0,0.5,0c0,0,1,0,1.1,0c0.1,0,0.2,0,0.2,0c0,0,0,0,0.1,0c0,0,0,0,0,0c0,0,0,0.1,0,0.2c0,0,0,0.3,0,0.3c0,0,0,0.1,0,0.1
		c0,0,0,0,0-0.1c0,0,0-0.1,0-0.2c0-0.1-0.1-0.1-0.3-0.2c-0.1,0-0.6,0-0.7,0c0,0,0,0,0,0v1.4c0,0,0,0.1,0,0.1c0.1,0,0.7,0,0.8,0
		c0.1,0,0.2,0,0.2-0.1c0,0,0.1-0.1,0.1-0.1c0,0,0,0,0,0c0,0,0,0.1,0,0.3c0,0.1,0,0.3,0,0.3c0,0,0,0.1,0,0.1c0,0,0,0,0,0
		c0,0,0-0.1,0-0.2c0-0.1-0.1-0.1-0.2-0.2c-0.1,0-0.6,0-0.7,0c0,0,0,0,0,0v0.4c0,0.2,0,0.8,0,0.9c0,0.3,0.1,0.4,0.5,0.4
		c0.1,0,0.3,0,0.5-0.1c0.1-0.1,0.2-0.1,0.2-0.3c0-0.1,0-0.1,0-0.1c0,0,0,0,0,0.1c0,0,0,0.4-0.1,0.5c0,0.1-0.1,0.1-0.3,0.1
		c-0.3,0-0.6,0-0.8,0c-0.2,0-0.3,0-0.4,0c0,0-0.1,0-0.2,0c-0.1,0-0.2,0-0.3,0c0,0-0.1,0-0.1,0c0,0,0,0,0,0c0,0,0.1,0,0.1,0
		c0.1,0,0.1-0.1,0.1-0.3c0-0.2,0-0.6,0-1.1V45.4z"/>
	<path class="st1" d="M32.4,45.4c0-0.8,0-0.9,0-1.1c0-0.2,0-0.3-0.2-0.3c0,0-0.1,0-0.2,0c0,0,0,0,0,0c0,0,0,0,0.1,0
		c0.2,0,0.5,0,0.5,0c0,0,0.4,0,0.6,0c0.3,0,0.6,0,0.9,0.2c0.1,0.1,0.3,0.3,0.3,0.7c0,0.4-0.1,0.7-0.6,1.1c0.4,0.5,0.7,1,1,1.3
		c0.2,0.3,0.4,0.3,0.5,0.3c0.1,0,0.1,0,0.2,0c0,0,0,0,0,0c0,0,0,0-0.1,0h-0.3c-0.3,0-0.4,0-0.5-0.1c-0.2-0.1-0.4-0.4-0.6-0.7
		c-0.2-0.3-0.4-0.6-0.5-0.7c0,0,0,0-0.1,0l-0.6,0c0,0,0,0,0,0v0.1c0,0.5,0,0.9,0,1.1c0,0.1,0,0.2,0.2,0.3c0.1,0,0.2,0,0.2,0
		c0,0,0,0,0,0c0,0,0,0-0.1,0c-0.3,0-0.5,0-0.6,0c0,0-0.3,0-0.5,0c0,0-0.1,0-0.1,0c0,0,0,0,0,0c0,0,0.1,0,0.1,0
		c0.1,0,0.1-0.1,0.1-0.3c0-0.2,0-0.6,0-1.1V45.4z M32.8,45.9C32.8,45.9,32.8,45.9,32.8,45.9c0.1,0.1,0.3,0.1,0.5,0.1
		c0.1,0,0.2,0,0.3-0.1c0.2-0.1,0.3-0.4,0.3-0.8c0-0.6-0.3-1-0.8-1c-0.1,0-0.3,0-0.3,0c0,0,0,0,0,0.1V45.9z"/>
	<path class="st1" d="M35.9,47.7c-0.1,0-0.1-0.1-0.1-0.2c0-0.2,0-0.4,0-0.5c0-0.1,0-0.1,0-0.1c0,0,0,0,0,0.1c0,0,0,0.1,0,0.2
		c0.1,0.4,0.4,0.5,0.7,0.5c0.5,0,0.7-0.3,0.7-0.7c0-0.4-0.2-0.5-0.6-0.9l-0.2-0.2c-0.5-0.4-0.7-0.7-0.7-1.1c0-0.6,0.4-0.9,1-0.9
		c0.2,0,0.4,0,0.5,0.1c0.1,0,0.1,0,0.2,0c0,0,0,0,0,0c0,0,0,0.2,0,0.5c0,0.1,0,0.1,0,0.1c0,0,0,0,0-0.1c0-0.1,0-0.2-0.1-0.2
		c0-0.1-0.2-0.2-0.6-0.2c-0.3,0-0.6,0.2-0.6,0.5c0,0.3,0.1,0.5,0.6,0.8l0.1,0.1c0.6,0.4,0.8,0.8,0.8,1.2c0,0.3-0.1,0.6-0.4,0.9
		c-0.2,0.1-0.5,0.2-0.7,0.2C36.4,47.9,36.1,47.8,35.9,47.7"/>
	<path class="st1" d="M41.2,46.3c0,0.5,0,0.9,0,1.1c0,0.1,0,0.2,0.2,0.3c0.1,0,0.2,0,0.2,0c0,0,0,0,0,0c0,0,0,0-0.1,0
		c-0.3,0-0.6,0-0.6,0c0,0-0.3,0-0.5,0c0,0-0.1,0-0.1,0c0,0,0,0,0,0c0,0,0.1,0,0.1,0c0.1,0,0.1-0.1,0.1-0.3c0-0.2,0-0.6,0-1.1v-0.9
		c0-0.8,0-0.9,0-1.1c0-0.2,0-0.2-0.1-0.3c-0.1,0-0.1,0-0.1,0c0,0,0,0,0,0c0,0,0,0,0.1,0c0.2,0,0.4,0,0.5,0c0,0,0.3,0,0.5,0
		c0.1,0,0.1,0,0.1,0c0,0,0,0,0,0c0,0-0.1,0-0.1,0c-0.1,0-0.2,0.1-0.2,0.3c0,0.2,0,0.3,0,1.1V46.3z"/>
	<path class="st1" d="M43,47.1c0,0.4,0.1,0.5,0.2,0.6c0.1,0,0.2,0,0.2,0c0,0,0,0,0,0c0,0,0,0-0.1,0c-0.3,0-0.4,0-0.5,0
		c0,0-0.2,0-0.4,0c0,0-0.1,0-0.1,0c0,0,0,0,0,0c0,0,0.1,0,0.2,0c0.1,0,0.1-0.2,0.1-0.6v-2.9c0-0.2,0-0.3,0.1-0.3
		c0.1,0,0.1,0.1,0.2,0.2c0.1,0.1,0.7,0.9,1.5,1.7c0.5,0.5,0.9,1.1,1.1,1.3l0-2.5c0-0.3,0-0.4-0.2-0.5c-0.1,0-0.2,0-0.2,0
		c0,0,0,0,0,0c0,0,0,0,0.1,0c0.2,0,0.4,0,0.5,0c0.1,0,0.2,0,0.4,0c0,0,0.1,0,0.1,0c0,0,0,0-0.1,0c0,0-0.1,0-0.1,0
		c-0.2,0-0.2,0.1-0.2,0.4l0,2.9c0,0.3,0,0.4,0,0.4c0,0-0.1,0-0.3-0.3c0,0-0.7-0.8-1.2-1.4c-0.5-0.6-1-1.2-1.2-1.4L43,47.1z"/>
	<path class="st1" d="M50.6,47.1c0,0.2,0,0.4,0.2,0.5c0.1,0,0.3,0,0.3,0c0,0,0,0,0,0c0,0,0,0-0.1,0c-0.1,0-0.6,0-0.8,0
		c-0.1,0-0.1,0-0.1-0.1c0,0,0,0,0,0c0,0,0-0.1,0-0.2L50,45h0l-1.1,2.6c-0.1,0.2-0.1,0.3-0.2,0.3c0,0-0.1,0-0.2-0.2
		c-0.1-0.2-0.4-0.9-0.5-1.2c-0.1-0.3-0.5-1.2-0.6-1.4h0l-0.2,2.3c0,0.1,0,0.2,0,0.3c0,0.1,0,0.1,0.1,0.1c0.1,0,0.1,0,0.2,0
		c0,0,0,0,0,0c0,0,0,0-0.1,0c-0.2,0-0.4,0-0.4,0c0,0-0.3,0-0.4,0c0,0-0.1,0-0.1,0c0,0,0,0,0,0c0,0,0.1,0,0.1,0
		c0.2,0,0.2-0.2,0.2-0.4l0.3-3.3c0-0.1,0-0.1,0.1-0.1c0,0,0.1,0,0.1,0.1l1.4,3.1l1.3-3.1c0-0.1,0-0.1,0.1-0.1c0,0,0.1,0,0.1,0.1
		L50.6,47.1z"/>
	<path class="st1" d="M53.4,43.9c1,0,1.8,0.7,1.8,1.9c0,1.1-0.7,2-1.8,2c-1.3,0-1.8-1.1-1.8-2C51.6,45.1,52.1,43.9,53.4,43.9
		 M53.5,47.6c0.4,0,1.2-0.2,1.2-1.7c0-1.2-0.6-1.8-1.4-1.8c-0.8,0-1.3,0.5-1.3,1.6C52,46.9,52.7,47.6,53.5,47.6"/>
	<path class="st1" d="M56.2,45.4c0-0.8,0-0.9,0-1.1c0-0.2,0-0.3-0.2-0.3c0,0-0.1,0-0.2,0c0,0,0,0,0,0c0,0,0,0,0.1,0
		c0.2,0,0.5,0,0.5,0c0.1,0,0.3,0,0.5,0c0.8,0,1,0.5,1,0.8c0,0.4-0.2,0.6-0.5,0.9c0.4,0.1,0.8,0.5,0.8,1c0,0.6-0.4,1.1-1.2,1.1
		c-0.1,0-0.2,0-0.4,0c-0.1,0-0.3,0-0.3,0c0,0-0.1,0-0.2,0c-0.1,0-0.2,0-0.3,0c0,0-0.1,0-0.1,0c0,0,0,0,0,0c0,0,0.1,0,0.1,0
		c0.1,0,0.1-0.1,0.1-0.3c0-0.2,0-0.6,0-1.1V45.4z M56.6,45.6C56.6,45.6,56.6,45.6,56.6,45.6c0.1,0.1,0.1,0.1,0.3,0.1
		c0.3,0,0.4,0,0.4-0.1c0.1-0.1,0.2-0.3,0.2-0.5c0-0.4-0.2-0.8-0.6-0.8c-0.1,0-0.2,0-0.2,0c0,0-0.1,0-0.1,0.1V45.6z M56.6,46.1
		c0,0.4,0,1,0,1.1c0,0.2,0,0.3,0.2,0.4c0.1,0.1,0.3,0.1,0.4,0.1c0.3,0,0.7-0.1,0.7-0.8c0-0.2-0.1-0.7-0.4-0.9
		c-0.2-0.1-0.3-0.1-0.4-0.1c-0.1,0-0.3,0-0.4,0c0,0,0,0,0,0V46.1z"/>
	<path class="st1" d="M59.7,46.3c0,0.5,0,0.9,0,1.1c0,0.1,0,0.2,0.2,0.3c0.1,0,0.2,0,0.2,0c0,0,0,0,0,0c0,0,0,0-0.1,0
		c-0.3,0-0.6,0-0.6,0c0,0-0.3,0-0.5,0c0,0-0.1,0-0.1,0c0,0,0,0,0,0c0,0,0.1,0,0.1,0c0.1,0,0.1-0.1,0.1-0.3c0-0.2,0-0.6,0-1.1v-0.9
		c0-0.8,0-0.9,0-1.1c0-0.2,0-0.2-0.1-0.3c-0.1,0-0.1,0-0.1,0c0,0,0,0,0,0c0,0,0,0,0.1,0c0.2,0,0.4,0,0.5,0c0,0,0.3,0,0.5,0
		c0.1,0,0.1,0,0.1,0c0,0,0,0,0,0c0,0-0.1,0-0.1,0c-0.1,0-0.2,0.1-0.2,0.3c0,0.2,0,0.3,0,1.1V46.3z"/>
	<path class="st1" d="M61.7,46.3c0,0.7,0,1,0.1,1.1c0.1,0.1,0.2,0.1,0.6,0.1c0.2,0,0.4,0,0.6-0.2c0.1-0.1,0.1-0.2,0.1-0.3
		c0,0,0-0.1,0-0.1c0,0,0,0,0,0.1c0,0.1,0,0.4-0.1,0.5c0,0.1,0,0.1-0.3,0.1c-0.3,0-0.6,0-0.8,0c-0.2,0-0.4,0-0.5,0c0,0-0.1,0-0.2,0
		c-0.1,0-0.2,0-0.3,0c0,0-0.1,0-0.1,0c0,0,0,0,0,0c0,0,0.1,0,0.1,0c0.1,0,0.1-0.1,0.1-0.3c0-0.2,0-0.6,0-1.1v-0.9c0-0.8,0-0.9,0-1.1
		c0-0.2,0-0.3-0.2-0.3c0,0-0.1,0-0.2,0c0,0,0,0,0,0c0,0,0,0,0.1,0c0.2,0,0.5,0,0.5,0c0,0,0.4,0,0.5,0c0,0,0.1,0,0.1,0c0,0,0,0,0,0
		c0,0-0.1,0-0.2,0c-0.1,0-0.2,0.1-0.2,0.3c0,0.2,0,0.3,0,1.1V46.3z"/>
	<path class="st1" d="M64.6,46.3c0,0.5,0,0.9,0,1.1c0,0.1,0,0.2,0.2,0.3c0.1,0,0.2,0,0.2,0c0,0,0,0,0,0c0,0,0,0-0.1,0
		c-0.3,0-0.6,0-0.6,0c0,0-0.3,0-0.5,0c0,0-0.1,0-0.1,0c0,0,0,0,0,0c0,0,0.1,0,0.1,0c0.1,0,0.1-0.1,0.1-0.3c0-0.2,0-0.6,0-1.1v-0.9
		c0-0.8,0-0.9,0-1.1c0-0.2,0-0.2-0.1-0.3c-0.1,0-0.1,0-0.1,0c0,0,0,0,0,0c0,0,0,0,0.1,0c0.2,0,0.4,0,0.5,0c0,0,0.3,0,0.5,0
		c0.1,0,0.1,0,0.1,0c0,0,0,0,0,0c0,0-0.1,0-0.1,0c-0.1,0-0.1,0.1-0.2,0.3c0,0.2,0,0.3,0,1.1V46.3z"/>
	<path class="st1" d="M66.9,44.1c0.1-0.2,0.1-0.2,0.1-0.2c0,0,0.1,0.1,0.1,0.2c0.1,0.2,0.8,2.3,1.1,3c0.2,0.5,0.3,0.5,0.4,0.6
		c0.1,0,0.1,0,0.2,0c0,0,0.1,0,0.1,0c0,0-0.1,0-0.1,0c-0.1,0-0.4,0-0.7,0c-0.1,0-0.2,0-0.2,0c0,0,0,0,0,0c0,0,0.1-0.1,0-0.1
		l-0.4-1.1c0,0,0,0,0,0h-1.1c0,0,0,0,0,0l-0.3,0.8c0,0.1-0.1,0.2-0.1,0.3c0,0.1,0.1,0.1,0.2,0.1h0c0,0,0,0,0,0c0,0,0,0-0.1,0
		c-0.1,0-0.4,0-0.4,0c0,0-0.3,0-0.5,0c-0.1,0-0.1,0-0.1,0c0,0,0,0,0,0c0,0,0.1,0,0.1,0c0.2,0,0.3-0.2,0.4-0.5L66.9,44.1z M67.4,46.2
		C67.4,46.2,67.4,46.2,67.4,46.2L67,44.8c0-0.1-0.1-0.1-0.1,0l-0.4,1.4c0,0,0,0,0,0H67.4z"/>
	<path class="st1" d="M69.5,45.4c0-0.8,0-0.9,0-1.1c0-0.2,0-0.3-0.2-0.3c0,0-0.1,0-0.2,0c0,0,0,0,0,0c0,0,0,0,0.1,0
		c0.2,0,0.5,0,0.5,0c0,0,0.4,0,0.6,0c0.3,0,0.6,0,0.9,0.2c0.1,0.1,0.3,0.3,0.3,0.7c0,0.4-0.1,0.7-0.6,1.1c0.4,0.5,0.7,1,1,1.3
		c0.2,0.3,0.4,0.3,0.5,0.3c0.1,0,0.1,0,0.2,0c0,0,0,0,0,0c0,0,0,0-0.1,0h-0.3c-0.3,0-0.4,0-0.5-0.1c-0.2-0.1-0.4-0.4-0.6-0.7
		c-0.2-0.3-0.4-0.6-0.5-0.7c0,0,0,0-0.1,0l-0.6,0c0,0,0,0,0,0v0.1c0,0.5,0,0.9,0,1.1c0,0.1,0,0.2,0.2,0.3c0.1,0,0.2,0,0.2,0
		c0,0,0,0,0,0c0,0,0,0-0.1,0c-0.2,0-0.5,0-0.6,0c0,0-0.3,0-0.5,0c0,0-0.1,0-0.1,0c0,0,0,0,0,0c0,0,0.1,0,0.1,0
		c0.1,0,0.1-0.1,0.1-0.3c0-0.2,0-0.6,0-1.1V45.4z M69.9,45.9C69.9,45.9,69.9,45.9,69.9,45.9C70,46,70.3,46,70.5,46
		c0.1,0,0.2,0,0.3-0.1c0.2-0.1,0.3-0.4,0.3-0.8c0-0.6-0.3-1-0.8-1c-0.1,0-0.3,0-0.3,0c0,0,0,0,0,0.1V45.9z"/>
	<path class="st1" d="M73.5,46.3c0,0.5,0,0.9,0,1.1c0,0.1,0,0.2,0.2,0.3c0.1,0,0.2,0,0.2,0c0,0,0,0,0,0c0,0,0,0-0.1,0
		c-0.3,0-0.6,0-0.6,0c0,0-0.3,0-0.5,0c0,0-0.1,0-0.1,0c0,0,0,0,0,0c0,0,0.1,0,0.1,0c0.1,0,0.1-0.1,0.1-0.3c0-0.2,0-0.6,0-1.1v-0.9
		c0-0.8,0-0.9,0-1.1c0-0.2,0-0.2-0.1-0.3c-0.1,0-0.1,0-0.1,0c0,0,0,0,0,0c0,0,0,0,0.1,0c0.2,0,0.4,0,0.5,0c0,0,0.3,0,0.5,0
		c0.1,0,0.1,0,0.1,0c0,0,0,0,0,0c0,0-0.1,0-0.1,0c-0.1,0-0.2,0.1-0.2,0.3c0,0.2,0,0.3,0,1.1V46.3z"/>
	<path class="st1" d="M76.4,43.9c1,0,1.8,0.7,1.8,1.9c0,1.1-0.7,2-1.8,2c-1.3,0-1.8-1.1-1.8-2C74.6,45.1,75.1,43.9,76.4,43.9
		 M76.5,47.6c0.4,0,1.2-0.2,1.2-1.7c0-1.2-0.6-1.8-1.4-1.8c-0.8,0-1.3,0.5-1.3,1.6C75,46.9,75.7,47.6,76.5,47.6"/>
	<path class="st1" d="M79,47.7c-0.1,0-0.1-0.1-0.1-0.2c0-0.2,0-0.4,0-0.5c0-0.1,0-0.1,0-0.1c0,0,0,0,0,0.1c0,0,0,0.1,0,0.2
		c0.1,0.4,0.4,0.5,0.7,0.5c0.5,0,0.7-0.3,0.7-0.7c0-0.4-0.2-0.5-0.6-0.9l-0.2-0.2c-0.5-0.4-0.7-0.7-0.7-1.1c0-0.6,0.4-0.9,1-0.9
		c0.2,0,0.4,0,0.5,0.1c0.1,0,0.1,0,0.2,0c0,0,0,0,0,0c0,0,0,0.2,0,0.5c0,0.1,0,0.1,0,0.1c0,0,0,0,0-0.1c0-0.1,0-0.2-0.1-0.2
		c0-0.1-0.2-0.2-0.6-0.2c-0.3,0-0.6,0.2-0.6,0.5c0,0.3,0.1,0.5,0.6,0.8l0.1,0.1c0.6,0.4,0.8,0.8,0.8,1.2c0,0.3-0.1,0.6-0.4,0.9
		c-0.2,0.1-0.5,0.2-0.7,0.2C79.4,47.9,79.2,47.8,79,47.7"/>
</g>
</svg>
